# File created by Blade
# Date/Time:  Fri Jan 16 14:33:41 2015
# Frame Rate: 120.000 fps
#------------------------------------------------------
:FULLY-SPECIFIED
:DEGREES
1003
root 18.905059 35.842559 -23.994637 -173.861642 -7.024586 -179.996815
Spine -8.927432 -10.880740 -5.492046
Head 0.097727 -5.615478 10.297645
LeftShoulder -13.062264 -14.298557 -5.149365
LeftArm -15.903928 8.619901 -68.711841
LeftForeArm 4.956258 -0.000000 9.712286
LeftHand -2.223792 -0.000000 2.150262
LeftHandThumb1 -26.253704 0.000000 33.147579
RightShoulder -10.659466 -26.680652 -27.250846
RightArm 10.211730 -34.605516 19.882342
RightForeArm -70.773420 -0.000000 103.553261
RightHand 14.195804 -0.000000 4.905966
RightHandThumb1 -24.326973 -0.000000 -32.862282
LeftUpLeg 0.946208 6.584457 -0.091247
LeftLeg -5.307891 -0.000000 0.000000
LeftFoot -18.266344 23.558724 -16.635188
LeftToeBase 23.853389 -0.000000 -0.000000
RightUpLeg 1.075386 -14.470277 1.883277
RightLeg -3.338304 -0.000000 0.000000
RightFoot -21.103246 -25.995922 18.333937
RightToeBase 21.786296 -0.000000 -0.000000
1004
root 18.903158 35.842522 -23.998256 -173.830940 -7.133089 -180.012201
Spine -8.871009 -11.347456 -5.419016
Head 0.043148 -5.212117 10.415368
LeftShoulder -13.219834 -14.340950 -5.114468
LeftArm -15.983471 8.363258 -68.728658
LeftForeArm 5.104266 0.000000 9.681076
LeftHand -2.204324 0.000000 2.029760
LeftHandThumb1 -26.253704 0.000000 33.147579
RightShoulder -11.008015 -26.858828 -27.156156
RightArm 10.135845 -34.685640 20.320145
RightForeArm -70.463062 -0.000000 103.539026
RightHand 13.868058 -0.000000 5.521915
RightHandThumb1 -24.326973 -0.000000 -32.862282
LeftUpLeg 0.904714 6.538756 -0.100762
LeftLeg -5.301252 -0.000000 0.000000
LeftFoot -18.230199 23.495890 -16.625716
LeftToeBase 24.007540 -0.000000 -0.000000
RightUpLeg 1.055749 -14.483920 1.881882
RightLeg -3.324852 -0.000000 0.000000
RightFoot -21.144112 -26.092077 18.348780
RightToeBase 21.838364 -0.000000 -0.000000
1005
root 18.902679 35.842138 -24.001544 -173.817073 -7.241157 -180.024619
Spine -8.796994 -11.823573 -5.342444
Head 0.010005 -4.793167 10.492245
LeftShoulder -13.384062 -14.435505 -5.073288
LeftArm -16.121316 8.230551 -68.768850
LeftForeArm 5.180726 -0.000000 9.678020
LeftHand -2.214727 -0.000000 2.013574
LeftHandThumb1 -26.253704 0.000000 33.147579
RightShoulder -11.354390 -27.082907 -27.075340
RightArm 10.109576 -34.716421 20.774445
RightForeArm -70.553410 -0.000000 103.469688
RightHand 13.800633 0.000000 5.632610
RightHandThumb1 -24.326973 -0.000000 -32.862282
LeftUpLeg 0.881373 6.475885 -0.102753
LeftLeg -5.293121 -0.000000 0.000000
LeftFoot -18.211580 23.457718 -16.588325
LeftToeBase 23.871800 -0.000000 -0.000000
RightUpLeg 1.050969 -14.523327 1.881755
RightLeg -3.309687 -0.000000 0.000000
RightFoot -21.194523 -26.146183 18.390747
RightToeBase 21.795119 -0.000000 -0.000000
1006
root 18.901366 35.842140 -24.005534 -173.829390 -7.335025 -180.039108
Spine -8.692662 -12.270670 -5.285014
Head 0.002605 -4.359623 10.601890
LeftShoulder -13.529217 -14.496734 -5.046775
LeftArm -16.225948 8.150576 -68.811719
LeftForeArm 5.175066 -0.000000 9.694569
LeftHand -2.279664 -0.000000 1.982992
LeftHandThumb1 -26.253704 0.000000 33.147579
RightShoulder -11.664987 -27.306007 -26.969842
RightArm 9.989982 -34.719816 21.300236
RightForeArm -70.597973 -0.000000 103.454177
RightHand 13.392462 -0.000000 5.738837
RightHandThumb1 -24.326973 -0.000000 -32.862282
LeftUpLeg 0.881767 6.461074 -0.108298
LeftLeg -5.276402 -0.000000 0.000000
LeftFoot -18.190069 23.385412 -16.581193
LeftToeBase 23.849881 -0.000000 -0.000000
RightUpLeg 1.073654 -14.589976 1.870517
RightLeg -3.296235 -0.000000 0.000000
RightFoot -21.231714 -26.166631 18.420114
RightToeBase 21.726984 -0.000000 -0.000000
1007
root 18.901288 35.842692 -24.003990 -173.833896 -7.466652 -180.053257
Spine -8.569699 -12.741094 -5.226211
Head -0.057187 -3.972691 10.693219
LeftShoulder -13.662978 -14.533384 -5.027579
LeftArm -16.273187 8.076650 -68.866559
LeftForeArm 5.215585 -0.000000 9.671694
LeftHand -2.332876 -0.000000 2.294091
LeftHandThumb1 -26.253704 0.000000 33.147579
RightShoulder -11.912786 -27.450307 -26.875327
RightArm 9.746604 -34.743572 21.970836
RightForeArm -71.143545 -0.000000 103.362136
RightHand 13.141803 -0.000000 4.030481
RightHandThumb1 -24.326973 -0.000000 -32.862282
LeftUpLeg 0.856704 6.387027 -0.110297
LeftLeg -5.251721 -0.000000 0.000000
LeftFoot -18.187632 23.326083 -16.587091
LeftToeBase 23.905344 -0.000000 -0.000000
RightUpLeg 1.077932 -14.673925 1.870393
RightLeg -3.276837 -0.000000 0.000000
RightFoot -21.264589 -26.223016 18.430527
RightToeBase 21.743987 -0.000000 -0.000000
1008
root 18.901742 35.842581 -24.006661 -173.833360 -7.555832 -180.060494
Spine -8.478047 -13.122226 -5.164812
Head -0.096874 -3.634662 10.745939
LeftShoulder -13.738021 -14.613817 -5.001081
LeftArm -16.411797 7.914422 -68.901661
LeftForeArm 5.258093 -0.000000 9.686621
LeftHand -2.301758 -0.000000 2.275901
LeftHandThumb1 -26.253704 0.000000 33.147579
RightShoulder -12.138321 -27.519343 -26.790469
RightArm 9.273108 -34.763911 22.718523
RightForeArm -70.660854 -0.000000 103.540412
RightHand 14.269741 -0.000000 7.461917
RightHandThumb1 -24.326973 -0.000000 -32.862282
LeftUpLeg 0.843025 6.362398 -0.107969
LeftLeg -5.237754 -0.000000 0.000000
LeftFoot -18.161269 23.261421 -16.576073
LeftToeBase 23.871141 -0.000000 -0.000000
RightUpLeg 1.084519 -14.714130 1.872464
RightLeg -3.265577 -0.000000 0.000000
RightFoot -21.303261 -26.271020 18.451567
RightToeBase 21.769867 -0.000000 -0.000000
1009
root 18.902261 35.842512 -24.009460 -173.835379 -7.647026 -180.062198
Spine -8.386113 -13.528242 -5.099239
Head -0.092394 -3.238806 10.828048
LeftShoulder -13.825664 -14.656479 -4.982322
LeftArm -16.536844 7.756356 -68.938203
LeftForeArm 5.453849 -0.000000 9.758659
LeftHand -2.258264 0.000000 2.022364
LeftHandThumb1 -26.253704 0.000000 33.147579
RightShoulder -12.355633 -27.696941 -26.708769
RightArm 9.002486 -34.792467 23.426510
RightForeArm -70.417246 -0.000000 103.477102
RightHand 13.912180 -0.000000 6.783168
RightHandThumb1 -24.326973 -0.000000 -32.862282
LeftUpLeg 0.839942 6.292258 -0.098257
LeftLeg -5.238914 -0.000000 0.000000
LeftFoot -18.148953 23.243905 -16.563105
LeftToeBase 23.904744 -0.000000 -0.000000
RightUpLeg 1.103503 -14.759384 1.876770
RightLeg -3.269691 -0.000000 0.000000
RightFoot -21.324765 -26.286483 18.485333
RightToeBase 21.706613 -0.000000 -0.000000
1010
root 18.902150 35.842866 -24.012655 -173.833856 -7.725762 -180.073676
Spine -8.303432 -13.920327 -5.044769
Head -0.105925 -2.897589 10.892054
LeftShoulder -13.949520 -14.690192 -4.938981
LeftArm -16.635966 7.761529 -69.024370
LeftForeArm 5.446434 -0.000000 9.824951
LeftHand -2.340349 -0.000000 2.055775
LeftHandThumb1 -26.253704 0.000000 33.147579
RightShoulder -12.600635 -27.865305 -26.623076
RightArm 8.789920 -34.873813 24.083940
RightForeArm -70.730867 -0.000000 103.330539
RightHand 13.740187 -0.000000 6.586871
RightHandThumb1 -24.326973 -0.000000 -32.862282
LeftUpLeg 0.832630 6.254953 -0.100724
LeftLeg -5.235037 -0.000000 0.000000
LeftFoot -18.133505 23.206924 -16.565753
LeftToeBase 23.945438 -0.000000 -0.000000
RightUpLeg 1.113188 -14.824978 1.874423
RightLeg -3.267595 -0.000000 0.000000
RightFoot -21.341882 -26.317554 18.503786
RightToeBase 21.694467 -0.000000 -0.000000
1011
root 18.903183 35.843285 -24.016703 -173.835381 -7.792486 -180.073160
Spine -8.231112 -14.270126 -4.984078
Head -0.103410 -2.639828 10.936020
LeftShoulder -14.015560 -14.703993 -4.911836
LeftArm -16.762537 7.615087 -69.073789
LeftForeArm 5.481864 -0.000000 9.928344
LeftHand -2.403760 -0.000000 2.132810
LeftHandThumb1 -26.253704 0.000000 33.147579
RightShoulder -12.864756 -28.041609 -26.507959
RightArm 8.532120 -34.892351 24.808541
RightForeArm -70.817705 0.000000 103.228148
RightHand 13.963060 -0.000000 7.154281
RightHandThumb1 -24.326973 -0.000000 -32.862282
LeftUpLeg 0.833590 6.207241 -0.090228
LeftLeg -5.237140 -0.000000 0.000000
LeftFoot -18.118059 23.181737 -16.559083
LeftToeBase 23.911421 -0.000000 -0.000000
RightUpLeg 1.120858 -14.884168 1.882411
RightLeg -3.256578 -0.000000 0.000000
RightFoot -21.353843 -26.314931 18.522921
RightToeBase 21.703912 -0.000000 -0.000000
1012
root 18.903807 35.843220 -24.022340 -173.832670 -7.858170 -180.081902
Spine -8.170607 -14.640166 -4.926111
Head -0.057711 -2.346348 10.965982
LeftShoulder -14.145317 -14.670089 -4.873399
LeftArm -16.812077 7.457130 -69.124577
LeftForeArm 5.577450 -0.000000 10.006411
LeftHand -2.386510 -0.000000 2.090469
LeftHandThumb1 -26.253704 0.000000 33.147579
RightShoulder -13.115265 -28.207163 -26.447363
RightArm 8.392426 -35.041852 25.478119
RightForeArm -70.994774 -0.000000 103.018184
RightHand 13.821169 -0.000000 7.124326
RightHandThumb1 -24.326973 -0.000000 -32.862282
LeftUpLeg 0.839414 6.157662 -0.090274
LeftLeg -5.250344 -0.000000 0.000000
LeftFoot -18.098761 23.170827 -16.548352
LeftToeBase 23.925505 -0.000000 -0.000000
RightUpLeg 1.136174 -14.957778 1.878195
RightLeg -3.256634 -0.000000 0.000000
RightFoot -21.362130 -26.304206 18.509541
RightToeBase 21.748481 -0.000000 -0.000000
